<!-- Generated by IcoMoon.io -->
<svg version="1.1" xmlns="http://www.w3.org/2000/svg" width="32" height="32" viewBox="0 0 32 32">
<title>linkedin</title>
<path d="M10.001 26.438h-4.375v-14.125h4.375zM10.437 7.812c0-1.414-1.147-2.562-2.561-2.562-1.419 0-2.563 1.148-2.563 2.562s1.145 2.563 2.563 2.563c1.414 0 2.561-1.148 2.561-2.563zM26.375 18.666c0-3.792-0.801-6.604-5.23-6.604-2.128 0-3.557 1.064-4.14 2.171h-0.004v-1.921h-4.25v14.125h4.25v-7.013c0-1.837 0.468-3.616 2.744-3.616 2.246 0 2.318 2.1 2.318 3.733v6.896h4.313zM32 28.25v-24.5c0-2.068-1.682-3.75-3.75-3.75h-24.5c-2.068 0-3.75 1.682-3.75 3.75v24.5c0 2.068 1.682 3.75 3.75 3.75h24.5c2.068 0 3.75-1.682 3.75-3.75zM28.25 2.5c0.689 0 1.25 0.561 1.25 1.25v24.5c0 0.689-0.561 1.25-1.25 1.25h-24.5c-0.689 0-1.25-0.561-1.25-1.25v-24.5c0-0.689 0.561-1.25 1.25-1.25z"></path>
</svg>
