<!-- Generated by IcoMoon.io -->
<svg version="1.1" xmlns="http://www.w3.org/2000/svg" width="32" height="32" viewBox="0 0 32 32">
<title>mail</title>
<path d="M30.359 5.333h-28.718c-0.903 0-1.641 0.738-1.641 1.641v18.051c0 0.902 0.738 1.641 1.641 1.641h28.718c0.902 0 1.641-0.738 1.641-1.641v-18.051c-0-0.903-0.738-1.641-1.641-1.641zM29.743 6.564l-12.799 9.6c-0.23 0.175-0.583 0.285-0.944 0.283-0.361 0.002-0.714-0.108-0.944-0.283l-12.799-9.6h27.486zM22.906 16.798l6.974 8.615c0.007 0.009 0.016 0.015 0.023 0.023h-27.807c0.007-0.008 0.016-0.014 0.023-0.023l6.974-8.615c0.214-0.264 0.173-0.651-0.091-0.866s-0.652-0.173-0.865 0.091l-6.906 8.531v-17.221l13.087 9.815c0.492 0.366 1.090 0.528 1.682 0.529 0.591-0.001 1.19-0.163 1.682-0.529l13.087-9.815v17.221l-6.906-8.531c-0.214-0.264-0.601-0.305-0.865-0.091s-0.305 0.602-0.091 0.866z"></path>
</svg>
